<svg version="1.1" id="Layer_1" xmlns="http://www.w3.org/2000/svg" xmlns:xlink="http://www.w3.org/1999/xlink" x="0px" y="0px"
	 width="100%" viewBox="0 0 500 500" enable-background="new 0 0 500 500" xml:space="preserve">
<path fill="#FFFFFF" opacity="1.000000" stroke="none" 
	d="
M223.000000,501.000000 
	C148.666687,501.000000 74.833366,501.000000 1.000040,501.000000 
	C1.000026,334.333405 1.000026,167.666779 1.000013,1.000129 
	C167.666565,1.000086 334.333130,1.000086 500.999756,1.000043 
	C500.999847,167.666534 500.999847,334.333069 500.999939,500.999817 
	C408.500000,501.000000 316.000000,501.000000 223.000000,501.000000 
M405.494720,300.365875 
	C410.442108,299.759491 415.389526,299.153076 420.595703,298.514954 
	C418.636292,296.138367 417.407196,293.298096 415.398407,292.549133 
	C412.827057,291.590424 409.627594,292.316345 406.480377,292.316345 
	C406.301941,294.135162 406.160706,295.574707 405.307648,296.886566 
	C403.704102,296.013062 402.182648,294.671143 400.478394,294.372528 
	C397.715332,293.888397 394.832336,294.088684 391.855103,293.502747 
	C391.745605,293.369293 391.636108,293.235809 391.608307,292.363403 
	C391.880402,291.466522 392.152496,290.569641 392.590607,289.125580 
	C390.131927,289.459045 388.065979,289.739227 385.303101,289.770538 
	C378.783844,289.962738 372.264343,290.295044 365.745392,290.284607 
	C362.750336,290.279785 359.756317,289.602570 357.008514,288.985199 
	C357.008514,288.985199 357.252869,288.737793 357.983887,288.683868 
	C363.768494,287.479645 369.577667,286.380066 375.328644,285.032471 
	C378.849701,284.207367 384.260345,283.963135 385.330261,281.761200 
	C387.385101,277.532410 390.251953,278.927460 392.991058,278.539001 
	C394.354950,278.345581 395.768890,278.505371 397.359253,278.505371 
	C395.890198,274.213257 398.122131,272.457977 401.002808,271.850372 
	C406.626251,270.664246 412.356323,269.990509 418.027802,269.020203 
	C419.364105,268.791595 420.643127,268.227844 421.948486,267.818268 
	C421.936523,267.134430 421.924591,266.450623 421.912628,265.766785 
	C414.714172,267.824951 408.120514,267.104797 401.287262,261.984772 
	C405.759033,261.581482 409.442627,261.791870 412.786987,260.826752 
	C418.507538,259.175934 426.335907,262.350067 429.472015,253.823349 
	C426.591248,253.539841 423.741943,253.259445 420.892670,252.979034 
	C420.925476,252.767029 420.958282,252.555038 420.991089,252.343048 
	C424.070190,251.743561 427.149292,251.144089 431.430298,250.310608 
	C429.014496,249.393295 427.838806,248.821899 426.598389,248.499496 
	C422.974274,247.557541 420.860199,246.199677 423.232300,241.918106 
	C423.816132,240.864304 422.401672,238.635834 421.772919,236.998428 
	C421.240143,235.610916 420.263977,234.357788 419.921753,232.939590 
	C418.799225,228.287949 422.036407,225.939880 425.791748,223.943344 
	C422.880096,221.753052 420.536835,219.990326 418.857025,217.951538 
	C419.525024,216.608246 420.192993,215.264938 421.400543,213.502228 
	C423.175537,211.319565 424.950500,209.136887 427.291107,206.258682 
	C423.460907,205.638016 420.024750,204.502518 416.648834,204.659760 
	C410.439056,204.948975 404.264679,205.998718 398.075562,206.731476 
	C398.012695,206.218689 397.949829,205.705902 397.886963,205.193115 
	C398.941498,204.993607 399.996002,204.794083 402.270538,204.363754 
	C398.434082,204.363754 395.882294,204.363754 393.330536,204.363754 
	C394.445923,202.728455 395.858185,201.666092 397.440338,201.250290 
	C402.125031,200.019165 406.830200,198.617416 411.616119,198.093979 
	C415.914246,197.623871 415.122314,195.230835 414.822632,192.027954 
	C411.774200,192.416122 408.921600,192.779358 406.011292,192.369812 
	C405.844513,190.065552 406.129211,187.574600 402.465881,187.784668 
	C399.242676,187.969543 395.861237,188.998352 392.917389,186.313553 
	C392.441345,185.879425 390.591583,186.826553 389.441559,187.294373 
	C388.440643,187.701492 387.531189,188.333511 386.285034,188.267487 
	C385.877014,187.773331 385.469025,187.279175 384.893311,186.116089 
	C383.878967,185.776642 382.864655,185.437195 381.017303,185.069473 
	C373.417908,185.443665 365.818481,185.817856 358.865051,185.594131 
	C361.082123,184.793640 363.299225,183.993149 365.516296,183.192642 
	C365.425323,182.688873 365.334351,182.185089 365.243378,181.681320 
	C361.503174,182.195251 357.763000,182.709183 353.289948,182.876373 
	C342.526611,183.917389 331.763306,184.958405 320.098145,185.925735 
	C317.387512,186.083939 314.676880,186.242142 311.055328,186.219528 
	C306.067566,186.229141 301.079773,186.238754 295.516174,186.160858 
	C295.382355,186.766937 295.248535,187.373016 294.685608,188.645828 
	C292.276886,188.125259 289.891388,187.388092 287.454865,187.126801 
	C281.372498,186.474518 275.266937,186.038391 269.584595,185.551025 
	C268.416168,184.359650 267.197052,182.195099 266.253387,182.309189 
	C261.402496,182.895645 255.019501,179.880859 252.661285,187.347275 
	C252.534973,187.747131 251.576569,187.988052 250.966385,188.115158 
	C244.717239,189.417068 238.459991,190.680084 232.343994,191.925644 
	C231.710846,187.975677 231.262741,185.180115 230.848877,182.598267 
	C225.617874,182.598267 220.477753,182.598267 215.337646,182.598267 
	C215.305130,182.278549 215.272598,181.958847 215.240082,181.639130 
	C218.118057,181.214020 220.996033,180.788910 223.874008,180.363800 
	C221.973099,178.832779 220.207245,178.243240 218.423340,178.182388 
	C213.615784,178.018372 208.791092,177.877960 203.990768,178.102997 
	C198.043503,178.381836 192.036621,178.601562 186.195374,179.636337 
	C178.101486,181.070160 170.181900,183.468185 162.104782,185.022675 
	C155.330170,186.326477 152.517548,189.097717 153.696838,194.834808 
	C149.462921,195.963150 145.266754,197.081436 140.320175,198.399689 
	C142.722580,200.390335 144.019302,201.464813 145.302261,202.527863 
	C142.271698,204.534607 137.236328,200.245773 136.466843,205.811447 
	C136.306473,206.971390 140.317139,208.708008 142.883957,210.515762 
	C142.228714,210.889099 141.322495,211.762711 140.299805,211.931824 
	C131.845276,213.329803 129.375732,216.104843 129.042068,225.563141 
	C129.053131,226.092560 129.064194,226.621964 129.116425,227.931885 
	C128.247009,228.960678 127.409012,230.018311 126.498611,231.009445 
	C125.720642,231.856384 124.041412,232.896378 124.199730,233.377228 
	C124.568283,234.496552 125.642441,235.648300 126.728790,236.200958 
	C128.155777,236.926910 129.869171,237.089920 131.457092,237.494446 
	C131.018402,238.700974 130.533966,240.033310 129.967453,241.591339 
	C130.885422,241.742081 131.663437,242.138016 132.116913,241.904266 
	C139.426010,238.136826 146.896423,241.551956 154.275452,241.396194 
	C154.560150,241.390198 154.865082,242.343491 155.019135,242.986679 
	C155.019135,242.986679 154.882477,243.128342 154.455704,243.555130 
	C152.506653,243.684235 150.558105,243.821320 148.608459,243.940704 
	C145.032135,244.159698 141.416504,244.118286 137.891220,244.663589 
	C135.269211,245.069183 132.763916,246.229385 130.206619,247.053467 
	C130.363037,247.545776 130.519440,248.038071 130.675858,248.530365 
	C131.960663,248.599991 133.425476,248.302399 134.488907,248.823654 
	C136.166473,249.645996 137.574478,251.018311 139.096573,252.157837 
	C137.594437,252.510986 136.106064,253.067719 134.587006,253.170303 
	C132.225418,253.329819 129.588058,252.883850 131.394562,256.761047 
	C131.565704,257.128357 130.555969,258.045837 129.793854,259.139130 
	C136.198914,258.824310 141.985107,258.539917 147.686493,258.259674 
	C142.041290,261.838562 136.627991,265.270447 130.417297,269.207825 
	C132.501984,271.251129 134.036484,273.617462 136.207367,274.665161 
	C138.933624,275.980865 142.312332,275.895844 145.147430,277.055786 
	C146.526993,277.620239 147.311188,279.639801 148.735794,281.479675 
	C140.758911,281.479675 134.248535,281.479675 127.738174,281.479675 
	C129.986099,284.623535 132.667145,288.163483 135.918396,288.802551 
	C139.514435,289.509399 143.632431,287.560577 148.288925,286.612427 
	C147.073715,288.912323 146.333588,290.313080 145.612961,291.676941 
	C140.941605,292.784119 135.084030,290.324341 132.255478,296.580170 
	C131.185974,298.945557 129.626297,300.859070 131.360474,303.752258 
	C133.038635,306.552002 134.678772,308.215210 138.302322,308.205719 
	C146.317383,308.184723 154.333923,308.719727 162.829498,309.046387 
	C162.174713,311.932129 161.788956,313.632233 161.609787,314.421906 
	C164.108383,316.647491 166.166718,318.480896 168.314041,320.393585 
	C164.353607,323.715210 164.490692,325.560059 168.634521,326.709442 
	C171.930908,327.623779 175.491531,327.693909 178.949066,327.898224 
	C188.894867,328.486084 198.848129,328.947540 208.796768,329.490387 
	C209.055801,329.504486 209.294876,329.884674 209.485626,330.045532 
	C208.648254,331.192780 207.874512,332.252808 207.167130,333.221954 
	C209.653107,333.963837 211.618759,334.702911 213.650726,335.114105 
	C215.691025,335.526947 217.835602,335.985748 219.868271,335.777679 
	C228.539764,334.890137 237.195969,333.833527 245.839828,332.701782 
	C253.006195,331.763550 260.194519,330.893127 266.647369,327.112396 
	C267.548615,326.584351 269.184784,327.131104 270.424591,327.420837 
	C271.319855,327.630005 272.187134,328.703461 272.955414,328.595795 
	C280.320831,327.563782 287.675476,326.433411 294.990906,325.099518 
	C295.720245,324.966553 296.169922,323.299957 296.930054,322.047455 
	C298.301788,321.890900 300.241180,321.669525 302.319275,321.432343 
	C300.780701,318.002869 301.157745,317.607513 303.913879,317.111786 
	C308.046082,316.368530 312.095825,315.166748 316.180634,314.159973 
	C309.621277,314.073669 303.193542,314.515656 296.790314,315.190277 
	C290.585815,315.843964 284.406525,316.736816 278.092651,316.993164 
	C278.041382,316.631989 277.990143,316.270813 278.437592,315.393311 
	C287.294464,309.927704 296.808990,310.731445 306.863556,311.771820 
	C306.951294,311.652924 307.440582,310.295074 308.109009,310.200287 
	C311.714447,309.688995 315.359009,309.377960 318.999878,309.205811 
	C330.895844,308.643402 342.821991,308.497162 354.686035,307.554993 
	C363.315216,306.869751 371.900208,305.373383 380.427338,303.814545 
	C382.921051,303.358643 385.131775,301.414368 387.505951,300.219330 
	C388.650848,299.643066 389.874023,299.222443 391.413757,299.209808 
	C395.475739,301.980011 399.674225,302.628296 404.096466,300.051880 
	C404.366699,299.894379 404.723846,299.886047 405.494720,300.365875 
M278.308319,177.006775 
	C283.771576,178.018631 283.771576,178.018631 286.628815,174.164688 
	C279.713989,174.164688 273.521667,174.159973 267.329407,174.178680 
	C267.020081,174.179611 266.559174,174.293594 266.430969,174.510117 
	C266.054199,175.146408 265.430328,176.002151 265.617828,176.506012 
	C265.813385,177.031433 267.267853,177.696671 267.441498,177.531738 
	C270.682037,174.453964 274.181152,177.655853 278.308319,177.006775 
M306.431061,172.860062 
	C304.770782,173.494949 303.110474,174.129837 301.450165,174.764725 
	C305.686615,174.482193 310.885559,178.658630 314.416931,172.031235 
	C311.382629,172.256760 309.286774,172.412537 306.431061,172.860062 
M306.185730,178.264938 
	C304.226990,178.700668 302.268250,179.136398 300.309509,179.572113 
	C300.338440,180.210373 300.367401,180.848618 300.396332,181.486862 
	C302.235107,181.693390 304.088776,182.156677 305.909393,182.050964 
	C309.303070,181.853912 309.808960,180.549606 306.185730,178.264938 
M420.482666,292.523743 
	C420.482666,292.523743 420.460236,292.483948 420.482666,292.523743 
z"/>
<path fill="#F0E552" opacity="1.000000" stroke="none" 
	d="
M391.061768,298.731323 
	C389.874023,299.222443 388.650848,299.643066 387.505951,300.219330 
	C385.131775,301.414368 382.921051,303.358643 380.427338,303.814545 
	C371.900208,305.373383 363.315216,306.869751 354.686035,307.554993 
	C342.821991,308.497162 330.895844,308.643402 318.999878,309.205811 
	C315.359009,309.377960 311.714447,309.688995 308.109009,310.200287 
	C307.440582,310.295074 306.951294,311.652924 306.863556,311.771820 
	C296.808990,310.731445 287.294464,309.927704 277.815063,315.494568 
	C273.718994,315.442047 270.245392,315.288239 266.771820,315.134430 
	C266.769836,315.698578 266.767883,316.262695 266.765900,316.826843 
	C270.582642,317.059418 274.399414,317.292023 278.216156,317.524597 
	C284.406525,316.736816 290.585815,315.843964 296.790314,315.190277 
	C303.193542,314.515656 309.621277,314.073669 316.180634,314.159973 
	C312.095825,315.166748 308.046082,316.368530 303.913879,317.111786 
	C301.157745,317.607513 300.780701,318.002869 302.319275,321.432343 
	C300.241180,321.669525 298.301788,321.890900 296.930054,322.047455 
	C296.169922,323.299957 295.720245,324.966553 294.990906,325.099518 
	C287.675476,326.433411 280.320831,327.563782 272.955414,328.595795 
	C272.187134,328.703461 271.319855,327.630005 270.424591,327.420837 
	C269.184784,327.131104 267.548615,326.584351 266.647369,327.112396 
	C260.194519,330.893127 253.006195,331.763550 245.839828,332.701782 
	C237.195969,333.833527 228.539764,334.890137 219.868271,335.777679 
	C217.835602,335.985748 215.691025,335.526947 213.650726,335.114105 
	C211.618759,334.702911 209.653107,333.963837 207.167130,333.221954 
	C207.874512,332.252808 208.648254,331.192780 209.485626,330.045532 
	C209.294876,329.884674 209.055801,329.504486 208.796768,329.490387 
	C198.848129,328.947540 188.894867,328.486084 178.949066,327.898224 
	C175.491531,327.693909 171.930908,327.623779 168.634521,326.709442 
	C164.490692,325.560059 164.353607,323.715210 168.314041,320.393585 
	C166.166718,318.480896 164.108383,316.647491 161.609787,314.421906 
	C161.788956,313.632233 162.174713,311.932129 162.829498,309.046387 
	C154.333923,308.719727 146.317383,308.184723 138.302322,308.205719 
	C134.678772,308.215210 133.038635,306.552002 131.360474,303.752258 
	C129.626297,300.859070 131.185974,298.945557 132.255478,296.580170 
	C135.084030,290.324341 140.941605,292.784119 145.612961,291.676941 
	C146.333588,290.313080 147.073715,288.912323 148.288925,286.612427 
	C143.632431,287.560577 139.514435,289.509399 135.918396,288.802551 
	C132.667145,288.163483 129.986099,284.623535 127.738174,281.479675 
	C134.248535,281.479675 140.758911,281.479675 148.735794,281.479675 
	C147.311188,279.639801 146.526993,277.620239 145.147430,277.055786 
	C142.312332,275.895844 138.933624,275.980865 136.207367,274.665161 
	C134.036484,273.617462 132.501984,271.251129 130.417297,269.207825 
	C136.627991,265.270447 142.041290,261.838562 147.686493,258.259674 
	C141.985107,258.539917 136.198914,258.824310 129.793854,259.139130 
	C130.555969,258.045837 131.565704,257.128357 131.394562,256.761047 
	C129.588058,252.883850 132.225418,253.329819 134.587006,253.170303 
	C136.106064,253.067719 137.594437,252.510986 139.096573,252.157837 
	C137.574478,251.018311 136.166473,249.645996 134.488907,248.823654 
	C133.425476,248.302399 131.960663,248.599991 130.675858,248.530365 
	C130.519440,248.038071 130.363037,247.545776 130.206619,247.053467 
	C132.763916,246.229385 135.269211,245.069183 137.891220,244.663589 
	C141.416504,244.118286 145.032135,244.159698 148.608459,243.940704 
	C150.558105,243.821320 152.506653,243.684235 154.755829,243.538986 
	C155.278763,243.491638 155.501556,243.460419 155.724350,243.429199 
	C155.536423,243.236069 155.348495,243.042938 155.160583,242.849792 
	C154.865082,242.343491 154.560150,241.390198 154.275452,241.396194 
	C146.896423,241.551956 139.426010,238.136826 132.116913,241.904266 
	C131.663437,242.138016 130.885422,241.742081 129.967453,241.591339 
	C130.533966,240.033310 131.018402,238.700974 131.457092,237.494446 
	C129.869171,237.089920 128.155777,236.926910 126.728790,236.200958 
	C125.642441,235.648300 124.568283,234.496552 124.199730,233.377228 
	C124.041412,232.896378 125.720642,231.856384 126.498611,231.009445 
	C127.409012,230.018311 128.247009,228.960678 129.469406,227.486389 
	C131.383545,227.684845 134.108414,228.087814 134.300461,229.015274 
	C135.052811,232.648560 137.280746,230.696747 138.464142,230.165207 
	C139.575073,229.666214 140.168045,228.014130 140.988937,226.869431 
	C139.649200,225.997696 138.373795,224.537735 136.955673,224.382629 
	C134.387817,224.101776 131.734833,224.599030 129.117401,224.771423 
	C129.375732,216.104843 131.845276,213.329803 140.299805,211.931824 
	C141.322495,211.762711 142.228714,210.889099 142.883957,210.515762 
	C140.317139,208.708008 136.306473,206.971390 136.466843,205.811447 
	C137.236328,200.245773 142.271698,204.534607 145.302261,202.527863 
	C144.019302,201.464813 142.722580,200.390335 140.320175,198.399689 
	C145.266754,197.081436 149.462921,195.963150 153.696838,194.834808 
	C152.517548,189.097717 155.330170,186.326477 162.104782,185.022675 
	C170.181900,183.468185 178.101486,181.070160 186.195374,179.636337 
	C192.036621,178.601562 198.043503,178.381836 203.990768,178.102997 
	C208.791092,177.877960 213.615784,178.018372 218.423340,178.182388 
	C220.207245,178.243240 221.973099,178.832779 223.874008,180.363800 
	C220.996033,180.788910 218.118057,181.214020 215.240082,181.639130 
	C215.272598,181.958847 215.305130,182.278549 215.337646,182.598267 
	C220.477753,182.598267 225.617874,182.598267 230.848877,182.598267 
	C231.262741,185.180115 231.710846,187.975677 232.343994,191.925644 
	C238.459991,190.680084 244.717239,189.417068 250.966385,188.115158 
	C251.576569,187.988052 252.534973,187.747131 252.661285,187.347275 
	C255.019501,179.880859 261.402496,182.895645 266.253387,182.309189 
	C267.197052,182.195099 268.416168,184.359650 269.584595,185.551025 
	C275.266937,186.038391 281.372498,186.474518 287.454865,187.126801 
	C289.891388,187.388092 292.276886,188.125259 295.118103,188.168671 
	C295.731079,187.210464 295.911560,186.729431 296.092010,186.248383 
	C301.079773,186.238754 306.067566,186.229141 311.685059,186.577667 
	C312.197906,188.501480 312.081055,190.067139 311.967865,191.583572 
	C315.185852,190.654709 318.519043,189.692596 321.706024,188.772675 
	C321.617706,188.425797 321.308838,187.212616 320.999939,185.999420 
	C331.763306,184.958405 342.526611,183.917389 353.811279,183.252304 
	C354.207031,184.675613 354.081451,185.723007 353.931000,186.977844 
	C355.378113,186.712662 356.798584,186.452362 358.219086,186.192047 
	C365.818481,185.817856 373.417908,185.443665 381.529785,185.429565 
	C383.048523,186.121429 384.054779,186.453217 385.061035,186.785004 
	C385.469025,187.279175 385.877014,187.773331 386.125519,188.868500 
	C384.257416,190.087036 382.548859,190.704590 380.840271,191.322128 
	C384.155029,193.287735 387.151855,194.931290 390.035217,194.751816 
	C394.680237,194.462708 399.307129,191.837341 403.700409,195.621597 
	C403.768158,195.679932 404.571350,194.884445 405.295959,194.312714 
	C405.733307,193.760910 405.906006,193.383835 406.046326,193.038574 
	C406.013977,193.070404 406.069000,193.142593 406.069000,193.142593 
	C408.921600,192.779358 411.774200,192.416122 414.822632,192.027954 
	C415.122314,195.230835 415.914246,197.623871 411.616119,198.093979 
	C406.830200,198.617416 402.125031,200.019165 397.440338,201.250290 
	C395.858185,201.666092 394.445923,202.728455 393.330536,204.363754 
	C395.882294,204.363754 398.434082,204.363754 402.270538,204.363754 
	C399.996002,204.794083 398.941498,204.993607 397.886963,205.193115 
	C397.949829,205.705902 398.012695,206.218689 398.075562,206.731476 
	C404.264679,205.998718 410.439056,204.948975 416.648834,204.659760 
	C420.024750,204.502518 423.460907,205.638016 427.291107,206.258682 
	C424.950500,209.136887 423.175537,211.319565 420.738159,213.706146 
	C418.103180,213.448135 416.130524,212.986191 413.836487,212.449005 
	C413.795471,212.488022 413.311096,212.746948 413.147919,213.139404 
	C412.487427,214.727692 411.925781,216.357086 411.327637,217.971313 
	C413.147644,217.604523 414.957367,217.142059 416.795563,216.944077 
	C417.210663,216.899384 417.724915,217.775391 418.193542,218.227600 
	C420.536835,219.990326 422.880096,221.753052 425.791748,223.943344 
	C422.036407,225.939880 418.799225,228.287949 419.921753,232.939590 
	C420.263977,234.357788 421.240143,235.610916 421.772919,236.998428 
	C422.401672,238.635834 423.816132,240.864304 423.232300,241.918106 
	C420.860199,246.199677 422.974274,247.557541 426.598389,248.499496 
	C427.838806,248.821899 429.014496,249.393295 431.430298,250.310608 
	C427.149292,251.144089 424.070190,251.743561 420.991089,252.343048 
	C420.958282,252.555038 420.925476,252.767029 420.892670,252.979034 
	C423.741943,253.259445 426.591248,253.539841 429.472015,253.823349 
	C426.335907,262.350067 418.507538,259.175934 412.786987,260.826752 
	C409.442627,261.791870 405.759033,261.581482 401.287262,261.984772 
	C408.120514,267.104797 414.714172,267.824951 421.912628,265.766785 
	C421.924591,266.450623 421.936523,267.134430 421.948486,267.818268 
	C420.643127,268.227844 419.364105,268.791595 418.027802,269.020203 
	C412.356323,269.990509 406.626251,270.664246 401.002808,271.850372 
	C398.122131,272.457977 395.890198,274.213257 397.359253,278.505371 
	C395.768890,278.505371 394.354950,278.345581 392.991058,278.539001 
	C390.251953,278.927460 387.385101,277.532410 385.330261,281.761200 
	C384.260345,283.963135 378.849701,284.207367 375.328644,285.032471 
	C369.577667,286.380066 363.768494,287.479645 357.475037,288.518555 
	C356.698303,288.414429 356.430420,288.475616 356.162567,288.536804 
	C356.362305,288.767975 356.562073,288.999146 356.761841,289.230286 
	C359.756317,289.602570 362.750336,290.279785 365.745392,290.284607 
	C372.264343,290.295044 378.783844,289.962738 385.801422,290.221344 
	C388.042023,291.482208 389.784302,292.292267 391.526581,293.102325 
	C391.636108,293.235809 391.745605,293.369293 391.918945,294.108307 
	C391.675751,296.053009 391.368744,297.392151 391.061768,298.731323 
M320.358185,244.188309 
	C324.586304,242.914551 326.190094,244.689789 325.973358,248.859787 
	C325.833435,251.551865 325.947083,254.257126 325.947083,256.956482 
	C326.671661,256.942596 327.396271,256.928741 328.120850,256.914856 
	C328.120850,253.751022 328.435120,250.543472 328.003296,247.439713 
	C327.742981,245.568878 326.608978,242.656418 325.356384,242.358032 
	C323.452301,241.904434 321.104370,243.314240 318.251160,243.572235 
	C317.509735,243.275253 316.768280,242.978256 316.026855,242.681274 
	C316.026855,247.432037 316.026855,252.182785 316.026855,256.933533 
	C316.430908,256.939880 316.834991,256.946228 317.239044,256.952576 
	C318.041992,252.820709 318.844940,248.688843 320.358185,244.188309 
M330.785889,268.904541 
	C334.792816,267.922943 340.062897,268.800385 341.221771,263.171906 
	C342.445190,257.229767 343.286743,251.147995 341.075256,245.302750 
	C340.599060,245.276840 340.122864,245.250946 339.646667,245.225052 
	C339.092834,249.131638 338.538971,253.038239 337.985107,256.944824 
	C337.530182,256.934875 337.075256,256.924957 336.620331,256.915009 
	C336.078796,255.065689 335.535522,253.216888 334.996307,251.366882 
	C334.437347,249.449295 333.882294,247.530548 332.971741,244.393265 
	C330.300110,254.077377 333.230927,260.585114 339.369171,260.633118 
	C339.133118,267.015503 333.806244,266.028259 329.096100,267.112915 
	C324.962311,267.390503 320.829285,267.890076 316.694580,267.904480 
	C303.745026,267.949646 290.794708,267.764404 277.844940,267.792206 
	C275.714966,267.796753 273.586304,268.425659 271.457031,268.766022 
	C271.520538,269.388306 271.584076,270.010559 271.647583,270.632812 
	C291.127777,271.617340 310.577332,270.874908 330.785889,268.904541 
M246.714447,271.044678 
	C254.392609,271.553284 256.135681,270.529663 256.578491,262.961884 
	C256.933838,256.889557 256.127289,250.737930 255.639771,244.637222 
	C255.543198,243.428482 254.552643,242.291168 253.974335,241.120926 
	C253.440018,241.232727 252.905716,241.344543 252.371414,241.456360 
	C252.371414,243.300446 252.289185,245.149063 252.390503,246.987564 
	C252.545456,249.799133 252.999924,252.605515 252.970917,255.410416 
	C252.959106,256.552338 252.014114,257.684570 251.493683,258.821198 
	C250.234711,258.213257 248.337616,257.924500 247.842453,256.934509 
	C246.605759,254.462067 246.026108,251.664352 245.139175,249.011734 
	C244.829834,248.086609 244.392715,247.204193 244.013962,246.302261 
	C243.587952,246.373337 243.161942,246.444397 242.735931,246.515472 
	C242.735931,250.679550 241.369598,255.653061 243.195618,258.735352 
	C244.506958,260.948883 250.083191,260.635773 254.008606,261.505615 
	C254.748154,267.909546 253.960770,268.868073 246.169571,268.997253 
	C240.733734,269.083832 235.287567,268.991302 229.864761,269.303894 
	C223.580414,269.666107 217.317001,270.836304 211.043777,270.841766 
	C201.737610,270.849823 192.432816,270.055542 183.121948,269.842560 
	C181.875519,269.814056 180.597076,271.184265 179.333450,271.906738 
	C180.530838,272.517029 181.725769,273.650177 182.925980,273.655762 
	C193.573776,273.705627 204.236115,273.857819 214.867081,273.378967 
	C225.266495,272.910583 235.634232,271.738770 246.714447,271.044678 
M382.725677,230.580246 
	C372.707031,228.662643 364.600281,232.015289 358.783966,240.139679 
	C353.385132,247.680923 353.283600,256.150146 357.373627,264.198700 
	C361.658630,272.631012 369.479401,276.494873 378.617340,276.680237 
	C389.386536,276.898712 399.695679,267.475250 401.073822,257.099762 
	C402.756317,244.433090 396.114502,234.471313 382.725677,230.580246 
M183.799759,241.852753 
	C183.799759,246.810471 183.799759,251.768173 183.799759,256.547760 
	C188.179001,256.547760 192.135864,256.547760 196.092728,256.547760 
	C196.112289,256.119598 196.131851,255.691452 196.151413,255.263290 
	C192.902054,255.263290 189.652695,255.263290 186.320892,255.263290 
	C186.320892,252.368225 186.320892,250.282410 186.320892,247.934860 
	C189.319046,247.764267 192.103546,247.605820 194.888062,247.447372 
	C194.882095,246.989334 194.876144,246.531296 194.870178,246.073242 
	C192.050110,245.838593 189.230057,245.603958 186.368668,245.365875 
	C186.368668,243.166656 186.368668,241.255890 186.368668,239.218842 
	C189.744080,239.052063 192.851974,238.898499 195.959869,238.744919 
	C195.937744,238.327438 195.915619,237.909943 195.893509,237.492462 
	C191.968246,237.492462 188.042999,237.492462 183.969208,237.492462 
	C183.913437,238.627731 183.856827,239.780136 183.799759,241.852753 
M221.652481,257.199036 
	C223.571472,256.701965 225.490448,256.204865 227.409424,255.707779 
	C227.275909,255.296082 227.142410,254.884369 227.008896,254.472656 
	C219.452347,255.512665 218.972549,255.283020 218.289154,250.055191 
	C219.973160,250.055191 221.624023,250.055191 223.274902,250.055191 
	C224.883698,250.055191 226.492477,250.055191 228.101273,250.055191 
	C228.499298,249.624603 228.897339,249.194016 229.295380,248.763428 
	C227.833206,246.535248 226.773712,243.042358 224.802002,242.414566 
	C222.579575,241.706970 218.670990,242.758148 217.022919,244.494141 
	C213.176285,248.545959 215.498840,255.002335 221.652481,257.199036 
M284.395905,250.302231 
	C287.806549,250.131744 291.217194,249.961258 294.836700,249.780334 
	C294.720917,245.408737 293.936310,242.015610 289.051331,241.753143 
	C284.952515,241.532928 282.388611,243.512329 281.870880,247.633911 
	C281.370697,251.615723 281.690826,255.438660 286.305603,256.967896 
	C289.976257,258.184265 292.537811,256.872467 293.738739,253.477341 
	C287.353302,256.092712 286.390442,255.853790 284.395905,250.302231 
M298.597107,252.234009 
	C298.706543,253.834488 298.815979,255.434967 298.925385,257.035461 
	C299.606964,257.019409 300.288513,257.003357 300.970093,256.987335 
	C300.970093,254.502762 300.978821,252.018143 300.967896,249.533646 
	C300.953979,246.371414 301.734741,243.701035 305.580475,243.883591 
	C309.394104,244.064636 308.523773,247.201828 308.681702,249.537857 
	C308.850037,252.028076 308.856232,254.529251 308.933197,257.025635 
	C309.612915,256.980652 310.292633,256.935669 310.972351,256.890686 
	C310.972351,253.502823 311.146790,250.103622 310.927887,246.729950 
	C310.658539,242.578613 308.185699,241.015167 304.024628,241.931030 
	C302.362671,242.296829 300.656006,242.459579 298.597351,242.771088 
	C298.597351,245.396118 298.597351,248.362213 298.597107,252.234009 
M266.340088,256.922302 
	C266.758606,254.423706 267.177094,251.925095 267.587616,249.474106 
	C276.800568,248.619965 279.078156,246.987549 278.240021,241.952606 
	C277.474731,237.355286 272.967926,235.893631 264.555725,237.785110 
	C264.841064,244.081528 265.130829,250.475159 266.340088,256.922302 
M207.610596,256.262756 
	C209.354919,251.622437 211.099243,246.982117 212.843582,242.341797 
	C212.217819,242.078491 211.592072,241.815186 210.966324,241.551880 
	C209.324387,245.479523 207.682434,249.407150 205.790527,253.932724 
	C203.734879,249.218124 202.083511,245.430679 200.432129,241.643234 
	C199.831329,241.929581 199.230530,242.215942 198.629745,242.502304 
	C200.326218,246.924088 201.911819,251.395096 203.831390,255.717804 
	C204.140900,256.414825 205.937607,256.451416 207.610596,256.262756 
M232.103745,255.061539 
	C232.640762,255.692169 233.177780,256.322784 233.714783,256.953430 
	C234.101105,256.158600 234.747452,255.389450 234.828888,254.564529 
	C235.188843,250.918182 235.386307,247.255783 235.680069,243.064484 
	C235.180023,242.863953 233.925034,242.360672 232.092346,241.625717 
	C232.092346,246.287308 232.092346,250.216446 232.103745,255.061539 
M148.042358,269.870300 
	C150.528625,269.398834 153.014893,268.927368 155.501144,268.455902 
	C149.856735,269.470276 143.646454,262.267273 137.982269,269.977051 
	C141.389236,269.977051 144.270996,269.977051 148.042358,269.870300 
z"/>
<path fill="#FBF9D3" opacity="1.000000" stroke="none" 
	d="
M405.031311,194.487427 
	C404.571350,194.884445 403.768158,195.679932 403.700409,195.621597 
	C399.307129,191.837341 394.680237,194.462708 390.035217,194.751816 
	C387.151855,194.931290 384.155029,193.287735 380.840271,191.322128 
	C382.548859,190.704590 384.257416,190.087036 386.273682,189.167831 
	C387.531189,188.333511 388.440643,187.701492 389.441559,187.294373 
	C390.591583,186.826553 392.441345,185.879425 392.917389,186.313553 
	C395.861237,188.998352 399.242676,187.969543 402.465881,187.784668 
	C406.129211,187.574600 405.844513,190.065552 406.040161,192.756195 
	C406.069000,193.142593 406.013977,193.070404 405.771545,193.198273 
	C405.363159,193.713242 405.197235,194.100342 405.031311,194.487427 
z"/>
<path fill="#F5EE84" opacity="1.000000" stroke="none" 
	d="
M406.019470,297.014282 
	C406.160706,295.574707 406.301941,294.135162 406.480377,292.316345 
	C409.627594,292.316345 412.827057,291.590424 415.398407,292.549133 
	C417.407196,293.298096 418.636292,296.138367 420.595703,298.514954 
	C415.389526,299.153076 410.442108,299.759491 405.272827,299.833496 
	C405.373779,298.538879 405.696625,297.776581 406.019470,297.014282 
z"/>
<path fill="#F4EB70" opacity="1.000000" stroke="none" 
	d="
M405.663574,296.950439 
	C405.696625,297.776581 405.373779,298.538879 405.045746,299.554749 
	C404.723846,299.886047 404.366699,299.894379 404.096466,300.051880 
	C399.674225,302.628296 395.475739,301.980011 391.237732,298.970581 
	C391.368744,297.392151 391.675751,296.053009 391.991394,294.356934 
	C394.832336,294.088684 397.715332,293.888397 400.478394,294.372528 
	C402.182648,294.671143 403.704102,296.013062 405.663574,296.950439 
z"/>
<path fill="#FAF5BA" opacity="1.000000" stroke="none" 
	d="
M277.894897,177.015823 
	C274.181152,177.655853 270.682037,174.453964 267.441498,177.531738 
	C267.267853,177.696671 265.813385,177.031433 265.617828,176.506012 
	C265.430328,176.002151 266.054199,175.146408 266.430969,174.510117 
	C266.559174,174.293594 267.020081,174.179611 267.329407,174.178680 
	C273.521667,174.159973 279.713989,174.164688 286.628815,174.164688 
	C283.771576,178.018631 283.771576,178.018631 277.894897,177.015823 
z"/>
<path fill="#FDFCE6" opacity="1.000000" stroke="none" 
	d="
M129.079742,225.167282 
	C131.734833,224.599030 134.387817,224.101776 136.955673,224.382629 
	C138.373795,224.537735 139.649200,225.997696 140.988937,226.869431 
	C140.168045,228.014130 139.575073,229.666214 138.464142,230.165207 
	C137.280746,230.696747 135.052811,232.648560 134.300461,229.015274 
	C134.108414,228.087814 131.383545,227.684845 129.448822,227.096130 
	C129.064194,226.621964 129.053131,226.092560 129.079742,225.167282 
z"/>
<path fill="#F5EE84" opacity="1.000000" stroke="none" 
	d="
M418.525269,218.089569 
	C417.724915,217.775391 417.210663,216.899384 416.795563,216.944077 
	C414.957367,217.142059 413.147644,217.604523 411.327637,217.971313 
	C411.925781,216.357086 412.487427,214.727692 413.147919,213.139404 
	C413.311096,212.746948 413.795471,212.488022 413.836487,212.449005 
	C416.130524,212.986191 418.103180,213.448135 420.468384,213.915848 
	C420.192993,215.264938 419.525024,216.608246 418.525269,218.089569 
z"/>
<path fill="#F4EB70" opacity="1.000000" stroke="none" 
	d="
M306.810974,172.714188 
	C309.286774,172.412537 311.382629,172.256760 314.416931,172.031235 
	C310.885559,178.658630 305.686615,174.482193 301.450165,174.764725 
	C303.110474,174.129837 304.770782,173.494949 306.810974,172.714188 
z"/>
<path fill="#F5EE84" opacity="1.000000" stroke="none" 
	d="
M320.549042,185.962585 
	C321.308838,187.212616 321.617706,188.425797 321.706024,188.772675 
	C318.519043,189.692596 315.185852,190.654709 311.967865,191.583572 
	C312.081055,190.067139 312.197906,188.501480 312.140503,186.668060 
	C314.676880,186.242142 317.387512,186.083939 320.549042,185.962585 
z"/>
<path fill="#F4EB70" opacity="1.000000" stroke="none" 
	d="
M358.542053,185.893097 
	C356.798584,186.452362 355.378113,186.712662 353.931000,186.977844 
	C354.081451,185.723007 354.207031,184.675613 354.177704,183.425674 
	C357.763000,182.709183 361.503174,182.195251 365.243378,181.681320 
	C365.334351,182.185089 365.425323,182.688873 365.516296,183.192642 
	C363.299225,183.993149 361.082123,184.793640 358.542053,185.893097 
z"/>
<path fill="#F4EB70" opacity="1.000000" stroke="none" 
	d="
M306.542969,178.360901 
	C309.808960,180.549606 309.303070,181.853912 305.909393,182.050964 
	C304.088776,182.156677 302.235107,181.693390 300.396332,181.486862 
	C300.367401,180.848618 300.338440,180.210373 300.309509,179.572113 
	C302.268250,179.136398 304.226990,178.700668 306.542969,178.360901 
z"/>
<path fill="#FAF5BA" opacity="1.000000" stroke="none" 
	d="
M278.154419,317.258881 
	C274.399414,317.292023 270.582642,317.059418 266.765900,316.826843 
	C266.767883,316.262695 266.769836,315.698578 266.771820,315.134430 
	C270.245392,315.288239 273.718994,315.442047 277.565735,315.752747 
	C277.990143,316.270813 278.041382,316.631989 278.154419,317.258881 
z"/>
<path fill="#F4EB70" opacity="1.000000" stroke="none" 
	d="
M391.567444,292.732849 
	C389.784302,292.292267 388.042023,291.482208 386.149902,290.345764 
	C388.065979,289.739227 390.131927,289.459045 392.590607,289.125580 
	C392.152496,290.569641 391.880402,291.466522 391.567444,292.732849 
z"/>
<path fill="#FBF9D3" opacity="1.000000" stroke="none" 
	d="
M384.977173,186.450546 
	C384.054779,186.453217 383.048523,186.121429 381.946289,185.443695 
	C382.864655,185.437195 383.878967,185.776642 384.977173,186.450546 
z"/>
<path fill="#F5EE84" opacity="1.000000" stroke="none" 
	d="
M295.804077,186.204620 
	C295.911560,186.729431 295.731079,187.210464 295.332642,187.835297 
	C295.248535,187.373016 295.382355,186.766937 295.804077,186.204620 
z"/>
<path fill="#F5EE84" opacity="1.000000" stroke="none" 
	d="
M420.471436,292.503845 
	C420.460236,292.483948 420.482666,292.523743 420.471436,292.503845 
z"/>
<path fill="#1E1A09" opacity="1.000000" stroke="none" 
	d="
M383.130554,230.687439 
	C396.114502,234.471313 402.756317,244.433090 401.073822,257.099762 
	C399.695679,267.475250 389.386536,276.898712 378.617340,276.680237 
	C369.479401,276.494873 361.658630,272.631012 357.373627,264.198700 
	C353.283600,256.150146 353.385132,247.680923 358.783966,240.139679 
	C364.600281,232.015289 372.707031,228.662643 383.130554,230.687439 
M388.968353,264.690338 
	C385.870880,266.450348 382.773438,268.210388 379.349854,270.155701 
	C379.349854,271.009338 379.349854,272.583740 379.349854,274.354523 
	C386.567169,273.818909 391.849030,270.730499 395.650879,265.144318 
	C395.536407,264.562469 395.421967,263.980652 395.307495,263.398834 
	C393.195435,263.609985 391.083405,263.821167 388.285858,263.477997 
	C392.760132,257.155701 393.476288,250.689011 389.796417,243.970718 
	C391.794220,243.366867 393.792053,242.763016 396.167664,242.044983 
	C391.520355,235.761993 386.335266,232.489349 379.048340,232.124359 
	C379.137207,234.033936 379.209625,235.589706 379.220032,235.813126 
	C382.131073,238.085266 384.097931,239.620422 385.186584,240.967789 
	C380.104950,240.718750 375.023315,240.469711 370.010864,239.436447 
	C372.280273,238.571930 374.549713,237.707428 377.016510,236.767715 
	C376.900299,235.151306 376.790131,233.619293 376.669434,231.940140 
	C369.427032,232.869278 363.981018,235.791687 359.769348,242.172729 
	C362.044617,242.832306 364.003021,243.400040 366.129883,244.756088 
	C362.624847,251.587646 363.773071,257.973572 367.436157,264.671173 
	C366.411011,263.885162 365.385864,263.099121 364.268433,262.242340 
	C362.962952,263.048157 361.632721,263.869263 360.077332,264.829346 
	C364.357513,270.764679 369.536407,274.006897 376.740906,274.237854 
	C376.740906,272.426392 376.740906,270.830322 376.740906,269.234222 
	C376.427521,269.566162 376.114136,269.898102 375.800751,270.230042 
	C373.180603,268.162872 370.560486,266.095734 368.685333,263.898773 
	C374.784058,268.178680 380.887756,268.489166 387.071716,264.027130 
	C387.508698,263.711823 388.366455,263.979767 388.968353,264.690338 
M360.926788,244.607132 
	C359.896973,245.131088 358.232178,245.421341 357.939423,246.216614 
	C355.908691,251.733597 356.101837,257.197144 359.017822,262.624817 
	C361.962372,261.707245 363.744934,260.800415 362.631317,257.090820 
	C361.868408,254.549454 362.662842,251.567719 362.552185,248.791183 
	C362.501648,247.523773 361.946930,246.276428 360.926788,244.607132 
M398.067169,260.567352 
	C400.009949,254.861710 399.912933,249.327698 396.512512,242.668732 
	C394.981049,244.928497 393.259857,246.316544 393.204224,247.768417 
	C393.043671,251.958450 393.554413,256.174194 393.863373,261.432434 
	C394.544312,261.432434 396.190155,261.432434 398.067169,260.567352 
z"/>
<path fill="#1F1E0A" opacity="1.000000" stroke="none" 
	d="
M246.015869,270.875732 
	C235.634232,271.738770 225.266495,272.910583 214.867081,273.378967 
	C204.236115,273.857819 193.573776,273.705627 182.925980,273.655762 
	C181.725769,273.650177 180.530838,272.517029 179.333450,271.906738 
	C180.597076,271.184265 181.875519,269.814056 183.121948,269.842560 
	C192.432816,270.055542 201.737610,270.849823 211.043777,270.841766 
	C217.317001,270.836304 223.580414,269.666107 229.864761,269.303894 
	C235.287567,268.991302 240.733734,269.083832 246.459503,269.321106 
	C246.504929,270.055206 246.260391,270.465454 246.015869,270.875732 
z"/>
<path fill="#1B1A09" opacity="1.000000" stroke="none" 
	d="
M246.365143,270.960205 
	C246.260391,270.465454 246.504929,270.055206 246.860046,269.432190 
	C253.960770,268.868073 254.748154,267.909546 254.008606,261.505615 
	C250.083191,260.635773 244.506958,260.948883 243.195618,258.735352 
	C241.369598,255.653061 242.735931,250.679550 242.735931,246.515472 
	C243.161942,246.444397 243.587952,246.373337 244.013962,246.302261 
	C244.392715,247.204193 244.829834,248.086609 245.139175,249.011734 
	C246.026108,251.664352 246.605759,254.462067 247.842453,256.934509 
	C248.337616,257.924500 250.234711,258.213257 251.493683,258.821198 
	C252.014114,257.684570 252.959106,256.552338 252.970917,255.410416 
	C252.999924,252.605515 252.545456,249.799133 252.390503,246.987564 
	C252.289185,245.149063 252.371414,243.300446 252.371414,241.456360 
	C252.905716,241.344543 253.440018,241.232727 253.974335,241.120926 
	C254.552643,242.291168 255.543198,243.428482 255.639771,244.637222 
	C256.127289,250.737930 256.933838,256.889557 256.578491,262.961884 
	C256.135681,270.529663 254.392609,271.553284 246.365143,270.960205 
z"/>
<path fill="#1B1A09" opacity="1.000000" stroke="none" 
	d="
M330.003906,268.838104 
	C310.577332,270.874908 291.127777,271.617340 271.647583,270.632812 
	C271.584076,270.010559 271.520538,269.388306 271.457031,268.766022 
	C273.586304,268.425659 275.714966,267.796753 277.844940,267.792206 
	C290.794708,267.764404 303.745026,267.949646 316.694580,267.904480 
	C320.829285,267.890076 324.962311,267.390503 329.549835,267.424500 
	C330.003693,268.103424 330.003815,268.470764 330.003906,268.838104 
z"/>
<path fill="#161507" opacity="1.000000" stroke="none" 
	d="
M330.394897,268.871338 
	C330.003815,268.470764 330.003693,268.103424 330.004089,267.460571 
	C333.806244,266.028259 339.133118,267.015503 339.369171,260.633118 
	C333.230927,260.585114 330.300110,254.077377 332.971741,244.393265 
	C333.882294,247.530548 334.437347,249.449295 334.996307,251.366882 
	C335.535522,253.216888 336.078796,255.065689 336.620331,256.915009 
	C337.075256,256.924957 337.530182,256.934875 337.985107,256.944824 
	C338.538971,253.038239 339.092834,249.131638 339.646667,245.225052 
	C340.122864,245.250946 340.599060,245.276840 341.075256,245.302750 
	C343.286743,251.147995 342.445190,257.229767 341.221771,263.171906 
	C340.062897,268.800385 334.792816,267.922943 330.394897,268.871338 
z"/>
<path fill="#0C0C04" opacity="1.000000" stroke="none" 
	d="
M183.799988,241.392654 
	C183.856827,239.780136 183.913437,238.627731 183.969208,237.492462 
	C188.042999,237.492462 191.968246,237.492462 195.893509,237.492462 
	C195.915619,237.909943 195.937744,238.327438 195.959869,238.744919 
	C192.851974,238.898499 189.744080,239.052063 186.368668,239.218842 
	C186.368668,241.255890 186.368668,243.166656 186.368668,245.365875 
	C189.230057,245.603958 192.050110,245.838593 194.870178,246.073242 
	C194.876144,246.531296 194.882095,246.989334 194.888062,247.447372 
	C192.103546,247.605820 189.319046,247.764267 186.320892,247.934860 
	C186.320892,250.282410 186.320892,252.368225 186.320892,255.263290 
	C189.652695,255.263290 192.902054,255.263290 196.151413,255.263290 
	C196.131851,255.691452 196.112289,256.119598 196.092728,256.547760 
	C192.135864,256.547760 188.179001,256.547760 183.799759,256.547760 
	C183.799759,251.768173 183.799759,246.810471 183.799988,241.392654 
z"/>
<path fill="#1B1A09" opacity="1.000000" stroke="none" 
	d="
M221.297791,257.165558 
	C215.498840,255.002335 213.176285,248.545959 217.022919,244.494141 
	C218.670990,242.758148 222.579575,241.706970 224.802002,242.414566 
	C226.773712,243.042358 227.833206,246.535248 229.295380,248.763428 
	C228.897339,249.194016 228.499298,249.624603 228.101273,250.055191 
	C226.492477,250.055191 224.883698,250.055191 223.274902,250.055191 
	C221.624023,250.055191 219.973160,250.055191 218.289154,250.055191 
	C218.972549,255.283020 219.452347,255.512665 227.008896,254.472656 
	C227.142410,254.884369 227.275909,255.296082 227.409424,255.707779 
	C225.490448,256.204865 223.571472,256.701965 221.297791,257.165558 
M224.860992,244.534790 
	C221.427399,243.036835 219.079132,243.666321 217.805634,248.013733 
	C220.489716,248.013733 222.500610,248.182983 224.439804,247.885193 
	C224.880615,247.817505 225.072998,246.132019 224.860992,244.534790 
z"/>
<path fill="#1B1A09" opacity="1.000000" stroke="none" 
	d="
M284.294586,250.705414 
	C286.390442,255.853790 287.353302,256.092712 293.738739,253.477341 
	C292.537811,256.872467 289.976257,258.184265 286.305603,256.967896 
	C281.690826,255.438660 281.370697,251.615723 281.870880,247.633911 
	C282.388611,243.512329 284.952515,241.532928 289.051331,241.753143 
	C293.936310,242.015610 294.720917,245.408737 294.836700,249.780334 
	C291.217194,249.961258 287.806549,250.131744 284.294586,250.705414 
M290.345886,248.029556 
	C293.625854,246.691299 292.015625,244.881378 290.273163,244.199051 
	C287.231873,243.008102 284.871582,244.010422 284.269012,248.037506 
	C286.198853,248.037506 287.843445,248.037506 290.345886,248.029556 
z"/>
<path fill="#161507" opacity="1.000000" stroke="none" 
	d="
M298.597229,251.781158 
	C298.597351,248.362213 298.597351,245.396118 298.597351,242.771088 
	C300.656006,242.459579 302.362671,242.296829 304.024628,241.931030 
	C308.185699,241.015167 310.658539,242.578613 310.927887,246.729950 
	C311.146790,250.103622 310.972351,253.502823 310.972351,256.890686 
	C310.292633,256.935669 309.612915,256.980652 308.933197,257.025635 
	C308.856232,254.529251 308.850037,252.028076 308.681702,249.537857 
	C308.523773,247.201828 309.394104,244.064636 305.580475,243.883591 
	C301.734741,243.701035 300.953979,246.371414 300.967896,249.533646 
	C300.978821,252.018143 300.970093,254.502762 300.970093,256.987335 
	C300.288513,257.003357 299.606964,257.019409 298.925385,257.035461 
	C298.815979,255.434967 298.706543,253.834488 298.597229,251.781158 
z"/>
<path fill="#0C0C04" opacity="1.000000" stroke="none" 
	d="
M265.880341,256.895569 
	C265.130829,250.475159 264.841064,244.081528 264.555725,237.785110 
	C272.967926,235.893631 277.474731,237.355286 278.240021,241.952606 
	C279.078156,246.987549 276.800568,248.619965 267.587616,249.474106 
	C267.177094,251.925095 266.758606,254.423706 265.880341,256.895569 
M275.042633,240.378952 
	C272.517853,239.825272 269.993042,239.271576 267.381775,238.698914 
	C267.381775,242.142838 267.381775,244.532898 267.381775,246.896378 
	C275.419586,247.400375 276.167755,246.839935 275.042633,240.378952 
z"/>
<path fill="#1B1A09" opacity="1.000000" stroke="none" 
	d="
M207.328720,256.528015 
	C205.937607,256.451416 204.140900,256.414825 203.831390,255.717804 
	C201.911819,251.395096 200.326218,246.924088 198.629745,242.502304 
	C199.230530,242.215942 199.831329,241.929581 200.432129,241.643234 
	C202.083511,245.430679 203.734879,249.218124 205.790527,253.932724 
	C207.682434,249.407150 209.324387,245.479523 210.966324,241.551880 
	C211.592072,241.815186 212.217819,242.078491 212.843582,242.341797 
	C211.099243,246.982117 209.354919,251.622437 207.328720,256.528015 
z"/>
<path fill="#3D3A14" opacity="1.000000" stroke="none" 
	d="
M232.098053,254.603577 
	C232.092346,250.216446 232.092346,246.287308 232.092346,241.625717 
	C233.925034,242.360672 235.180023,242.863953 235.680069,243.064484 
	C235.386307,247.255783 235.188843,250.918182 234.828888,254.564529 
	C234.747452,255.389450 234.101105,256.158600 233.714783,256.953430 
	C233.177780,256.322784 232.640762,255.692169 232.098053,254.603577 
z"/>
<path fill="#FBF9D3" opacity="1.000000" stroke="none" 
	d="
M147.597549,269.923676 
	C144.270996,269.977051 141.389236,269.977051 137.982269,269.977051 
	C143.646454,262.267273 149.856735,269.470276 155.501144,268.455902 
	C153.014893,268.927368 150.528625,269.398834 147.597549,269.923676 
z"/>
<path fill="#0C0C04" opacity="1.000000" stroke="none" 
	d="
M318.944946,243.932587 
	C321.104370,243.314240 323.452301,241.904434 325.356384,242.358032 
	C326.608978,242.656418 327.742981,245.568878 328.003296,247.439713 
	C328.435120,250.543472 328.120850,253.751022 328.120850,256.914856 
	C327.396271,256.928741 326.671661,256.942596 325.947083,256.956482 
	C325.947083,254.257126 325.833435,251.551865 325.973358,248.859787 
	C326.190094,244.689789 324.586304,242.914551 319.829590,244.213989 
	C319.300964,244.239655 318.944946,243.932602 318.944946,243.932587 
z"/>
<path fill="#0C0C04" opacity="1.000000" stroke="none" 
	d="
M319.474426,244.398315 
	C318.844940,248.688843 318.041992,252.820709 317.239044,256.952576 
	C316.834991,256.946228 316.430908,256.939880 316.026855,256.933533 
	C316.026855,252.182785 316.026855,247.432037 316.026855,242.681274 
	C316.768280,242.978256 317.509735,243.275253 318.598053,243.752411 
	C318.944946,243.932602 319.300964,244.239655 319.474426,244.398315 
z"/>
<path fill="#FFFFFF" opacity="1.000000" stroke="none" 
	d="
M155.089859,242.918243 
	C155.348495,243.042938 155.536423,243.236069 155.724350,243.429199 
	C155.501556,243.460419 155.278763,243.491638 154.969223,243.325592 
	C154.882477,243.128342 155.019135,242.986679 155.089859,242.918243 
z"/>
<path fill="#FFFFFF" opacity="1.000000" stroke="none" 
	d="
M405.295959,194.312714 
	C405.197235,194.100342 405.363159,193.713242 405.803894,193.166458 
	C405.906006,193.383835 405.733307,193.760910 405.295959,194.312714 
z"/>
<path fill="#FFFFFF" opacity="1.000000" stroke="none" 
	d="
M356.885193,289.107727 
	C356.562073,288.999146 356.362305,288.767975 356.162567,288.536804 
	C356.430420,288.475616 356.698303,288.414429 357.109497,288.545532 
	C357.252869,288.737793 357.008514,288.985199 356.885193,289.107727 
z"/>
<path fill="#F7AF1D" opacity="1.000000" stroke="none" 
	d="
M369.941681,240.220673 
	C375.023315,240.469711 380.104950,240.718750 385.871613,241.070374 
	C387.382202,242.123322 388.207764,243.073700 389.033325,244.024094 
	C393.476288,250.689011 392.760132,257.155701 388.633240,263.731262 
	C388.980621,263.984558 389.028564,263.976501 389.028564,263.976501 
	C388.366455,263.979767 387.508698,263.711823 387.071716,264.027130 
	C380.887756,268.489166 374.784058,268.178680 368.343323,263.951721 
	C368.001312,264.004669 367.979279,264.066620 367.979279,264.066620 
	C363.773071,257.973572 362.624847,251.587646 366.187866,244.081665 
	C367.477814,242.345047 368.709747,241.282852 369.941681,240.220673 
M378.328247,263.863739 
	C379.218872,262.403961 380.059296,260.910492 381.011047,259.491669 
	C382.787018,256.844086 382.708405,254.649719 379.779022,252.840134 
	C378.391052,251.982742 377.169708,250.855545 375.872894,249.850586 
	C377.466919,249.076935 379.062347,248.306168 380.654053,247.527725 
	C381.068665,247.324951 381.471710,247.098495 381.800140,246.925125 
	C380.467133,245.520645 379.209564,244.195679 377.864594,242.778580 
	C377.118195,243.986801 376.449829,245.350891 375.525787,246.511398 
	C372.770599,249.971680 373.336273,252.099060 377.381775,254.119537 
	C378.487793,254.671921 379.219666,255.973434 380.123199,256.931183 
	C378.977600,257.609711 377.877411,258.389740 376.669983,258.930145 
	C375.901581,259.274078 374.974030,259.262512 374.375336,259.365875 
	C375.556061,261.037476 376.546143,262.439178 378.328247,263.863739 
z"/>
<path fill="#F5C244" opacity="1.000000" stroke="none" 
	d="
M389.414856,243.997406 
	C388.207764,243.073700 387.382202,242.123322 386.310730,241.164276 
	C384.097931,239.620422 382.131073,238.085266 379.220032,235.813126 
	C379.209625,235.589706 379.137207,234.033936 379.048340,232.124359 
	C386.335266,232.489349 391.520355,235.761993 396.167664,242.044983 
	C393.792053,242.763016 391.794220,243.366867 389.414856,243.997406 
z"/>
<path fill="#F0D561" opacity="1.000000" stroke="none" 
	d="
M369.976257,239.828552 
	C368.709747,241.282852 367.477814,242.345047 366.103638,243.687500 
	C364.003021,243.400040 362.044617,242.832306 359.769348,242.172729 
	C363.981018,235.791687 369.427032,232.869278 376.669434,231.940140 
	C376.790131,233.619293 376.900299,235.151306 377.016510,236.767715 
	C374.549713,237.707428 372.280273,238.571930 369.976257,239.828552 
z"/>
<path fill="#F0D561" opacity="1.000000" stroke="none" 
	d="
M367.970825,264.016602 
	C370.560486,266.095734 373.180603,268.162872 375.800751,270.230042 
	C376.114136,269.898102 376.427521,269.566162 376.740906,269.234222 
	C376.740906,270.830322 376.740906,272.426392 376.740906,274.237854 
	C369.536407,274.006897 364.357513,270.764679 360.077332,264.829346 
	C361.632721,263.869263 362.962952,263.048157 364.268433,262.242340 
	C365.385864,263.099121 366.411011,263.885162 367.707703,264.368896 
	C367.979279,264.066620 368.001312,264.004669 367.970825,264.016602 
z"/>
<path fill="#F5C244" opacity="1.000000" stroke="none" 
	d="
M388.975983,264.008453 
	C391.083405,263.821167 393.195435,263.609985 395.307495,263.398834 
	C395.421967,263.980652 395.536407,264.562469 395.650879,265.144318 
	C391.849030,270.730499 386.567169,273.818909 379.349854,274.354523 
	C379.349854,272.583740 379.349854,271.009338 379.349854,270.155701 
	C382.773438,268.210388 385.870880,266.450348 388.998474,264.333435 
	C389.028564,263.976501 388.980621,263.984558 388.975983,264.008453 
z"/>
<path fill="#F5C244" opacity="1.000000" stroke="none" 
	d="
M361.273834,244.813553 
	C361.946930,246.276428 362.501648,247.523773 362.552185,248.791183 
	C362.662842,251.567719 361.868408,254.549454 362.631317,257.090820 
	C363.744934,260.800415 361.962372,261.707245 359.017822,262.624817 
	C356.101837,257.197144 355.908691,251.733597 357.939423,246.216614 
	C358.232178,245.421341 359.896973,245.131088 361.273834,244.813553 
z"/>
<path fill="#F0D561" opacity="1.000000" stroke="none" 
	d="
M397.951569,260.999878 
	C396.190155,261.432434 394.544312,261.432434 393.863373,261.432434 
	C393.554413,256.174194 393.043671,251.958450 393.204224,247.768417 
	C393.259857,246.316544 394.981049,244.928497 396.512512,242.668732 
	C399.912933,249.327698 400.009949,254.861710 397.951569,260.999878 
z"/>
<path fill="#E7DD4C" opacity="1.000000" stroke="none" 
	d="
M225.120361,244.862976 
	C225.072998,246.132019 224.880615,247.817505 224.439804,247.885193 
	C222.500610,248.182983 220.489716,248.013733 217.805634,248.013733 
	C219.079132,243.666321 221.427399,243.036835 225.120361,244.862976 
z"/>
<path fill="#E7DD4C" opacity="1.000000" stroke="none" 
	d="
M289.916992,248.033539 
	C287.843445,248.037506 286.198853,248.037506 284.269012,248.037506 
	C284.871582,244.010422 287.231873,243.008102 290.273163,244.199051 
	C292.015625,244.881378 293.625854,246.691299 289.916992,248.033539 
z"/>
<path fill="#E7DD4C" opacity="1.000000" stroke="none" 
	d="
M275.274109,240.721893 
	C276.167755,246.839935 275.419586,247.400375 267.381775,246.896378 
	C267.381775,244.532898 267.381775,242.142838 267.381775,238.698914 
	C269.993042,239.271576 272.517853,239.825272 275.274109,240.721893 
z"/>
<path fill="#161507" opacity="1.000000" stroke="none" 
	d="
M377.932220,263.852295 
	C376.546143,262.439178 375.556061,261.037476 374.375336,259.365875 
	C374.974030,259.262512 375.901581,259.274078 376.669983,258.930145 
	C377.877411,258.389740 378.977600,257.609711 380.123199,256.931183 
	C379.219666,255.973434 378.487793,254.671921 377.381775,254.119537 
	C373.336273,252.099060 372.770599,249.971680 375.525787,246.511398 
	C376.449829,245.350891 377.118195,243.986801 377.864594,242.778580 
	C379.209564,244.195679 380.467133,245.520645 381.800140,246.925125 
	C381.471710,247.098495 381.068665,247.324951 380.654053,247.527725 
	C379.062347,248.306168 377.466919,249.076935 375.872894,249.850586 
	C377.169708,250.855545 378.391052,251.982742 379.779022,252.840134 
	C382.708405,254.649719 382.787018,256.844086 381.011047,259.491669 
	C380.059296,260.910492 379.218872,262.403961 377.932220,263.852295 
z"/>
</svg>